<?xml version="1.0" encoding="UTF-8"?>
<mxfile host="https://www.draw.io" modified="2023-10-04T12:34:56.789Z" agent="Mozilla/5.0 (Windows NT 10.0; Win64; x64) AppleWebKit/537.36 (KHTML, like Gecko) Chrome/94.0.4606.81 Safari/537.36" version="13.7.1">
  <diagram id="1" name="Page-1">
    <mxGraphModel dx="1" dy="1" grid="1" gridSize="10" guides="1" tooltips="1" connect="1" arrows="1" fold="1" page="1" pageScale="1" pageWidth="850" pageHeight="1100" background="#ffffff">
      <root>
        <mxCell id="0"/>
        <mxCell id="1" parent="0"/>
        <mxCell id="2" value="User Query" style="rounded=1;whiteSpace=wrap;html=1;arcSize=10;" parent="1" vertex="1">
          <mxGeometry x="100" y="50" width="100" height="50" as="geometry"/>
        </mxCell>
        <mxCell id="3" value="Query Processor" style="rounded=1;whiteSpace=wrap;html=1;arcSize=10;" parent="1" vertex="1">
          <mxGeometry x="300" y="50" width="100" height="50" as="geometry"/>
        </mxCell>
        <mxCell id="4" value="Document Retriever" style="rounded=1;whiteSpace=wrap;html=1;arcSize=10;" parent="1" vertex="1">
          <mxGeometry x="500" y="50" width="100" height="50" as="geometry"/>
        </mxCell>
        <mxCell id="5" value="Relevant Documents" style="rounded=1;whiteSpace=wrap;html=1;arcSize=10;" parent="1" vertex="1">
          <mxGeometry x="700" y="50" width="100" height="50" as="geometry"/>
        </mxCell>
        <mxCell id="6" value="Knowledge Base" style="rounded=1;whiteSpace=wrap;html=1;arcSize=10;" parent="1" vertex="1">
          <mxGeometry x="100" y="150" width="100" height="50" as="geometry"/>
        </mxCell>
        <mxCell id="7" value="Context Manager" style="rounded=1;whiteSpace=wrap;html=1;arcSize=10;" parent="1" vertex="1">
          <mxGeometry x="300" y="150" width="100" height="50" as="geometry"/>
        </mxCell>
        <mxCell id="8" value="Text Generator" style="rounded=1;whiteSpace=wrap;html=1;arcSize=10;" parent="1" vertex="1">
          <mxGeometry x="500" y="150" width="100" height="50" as="geometry"/>
        </mxCell>
        <mxCell id="9" value="Multimodal Generator" style="rounded=1;whiteSpace=wrap;html=1;arcSize=10;" parent="1" vertex="1">
          <mxGeometry x="700" y="150" width="100" height="50" as="geometry"/>
        </mxCell>
        <mxCell id="10" value="Generated Response" style="rounded=1;whiteSpace=wrap;html=1;arcSize=10;" parent="1" vertex="1">
          <mxGeometry x="400" y="250" width="100" height="50" as="geometry"/>
        </mxCell>
        <mxCell id="11" value="Feedback Loop" style="rounded=1;whiteSpace=wrap;html=1;arcSize=10;" parent="1" vertex="1">
          <mxGeometry x="600" y="250" width="100" height="50" as="geometry"/>
        </mxCell>
        <mxCell id="12" value="User Feedback" style="rounded=1;whiteSpace=wrap;html=1;arcSize=10;" parent="1" vertex="1">
          <mxGeometry x="800" y="250" width="100" height="50" as="geometry"/>
        </mxCell>
        <mxCell id="13" value="Data Preprocessing" style="rounded=1;whiteSpace=wrap;html=1;arcSize=10;" parent="1" vertex="1">
          <mxGeometry x="100" y="350" width="100" height="50" as="geometry"/>
        </mxCell>
        <mxCell id="14" value="Model Training" style="rounded=1;whiteSpace=wrap;html=1;arcSize=10;" parent="1" vertex="1">
          <mxGeometry x="300" y="350" width="100" height="50" as="geometry"/>
        </mxCell>
        <mxCell id="15" value="Model Evaluation" style="rounded=1;whiteSpace=wrap;html=1;arcSize=10;" parent="1" vertex="1">
          <mxGeometry x="500" y="350" width="100" height="50" as="geometry"/>
        </mxCell>
        <mxCell id="16" value="Deployment" style="rounded=1;whiteSpace=wrap;html=1;arcSize=10;" parent="1" vertex="1">
          <mxGeometry x="700" y="350" width="100" height="50" as="geometry"/>
        </mxCell>
        <mxCell id="17" parent="1" edge="1">
          <mxGeometry relative="1" as="geometry"/>
          <mxStyle strokeColor="#000000" strokeWidth="2" as="style"/>
          <source cellId="2"/>
          <target cellId="3"/>
        </mxCell>
        <mxCell id="18" parent="1" edge="1">
          <mxGeometry relative="1" as="geometry"/>
          <mxStyle strokeColor="#000000" strokeWidth="2" as="style"/>
          <source cellId="3"/>
          <target cellId="4"/>
        </mxCell>
        <mxCell id="19" parent="1" edge="1">
          <mxGeometry relative="1" as="geometry"/>
          <mxStyle strokeColor="#000000" strokeWidth="2" as="style"/>
          <source cellId="4"/>
          <target cellId="5"/>
        </mxCell>
        <mxCell id="20" parent="1" edge="1">
          <mxGeometry relative="1" as="geometry"/>
          <mxStyle strokeColor="#000000" strokeWidth="2" as="style"/>
          <source cellId="5"/>
          <target cellId="6"/>
        </mxCell>
        <mxCell id="21" parent="1" edge="1">
          <mxGeometry relative="1" as="geometry"/>
          <mxStyle strokeColor="#000000" strokeWidth="2" as="style"/>
          <source cellId="6"/>
          <target cellId="7"/>
        </mxCell>
        <mxCell id="22" parent="1" edge="1">
          <mxGeometry relative="1" as="geometry"/>
          <mxStyle strokeColor="#000000" strokeWidth="2" as="style"/>
          <source cellId="7"/>
          <target cellId="8"/>
        </mxCell>
        <mxCell id="23" parent="1" edge="1">
          <mxGeometry relative="1" as="geometry"/>
          <mxStyle strokeColor="#000000" strokeWidth="2" as="style"/>
          <source cellId="8"/>
          <target cellId="9"/>
        </mxCell>
        <mxCell id="24" parent="1" edge="1">
          <mxGeometry relative="1" as="geometry"/>
          <mxStyle strokeColor="#000000" strokeWidth="2" as="style"/>
          <source cellId="9"/>
          <target cellId="10"/>
        </mxCell>
        <mxCell id="25" parent="1" edge="1">
          <mxGeometry relative="1" as="geometry"/>
          <mxStyle strokeColor="#000000" strokeWidth="2" as="style"/>
          <source cellId="10"/>
          <target cellId="11"/>
        </mxCell>
        <mxCell id="26" parent="1" edge="1">
          <mxGeometry relative="1" as="geometry"/>
          <mxStyle strokeColor="#000000" strokeWidth="2" as="style"/>
          <source cellId="11"/>
          <target cellId="12"/>
        </mxCell>
        <mxCell id="27" parent="1" edge="1">
          <mxGeometry relative="1" as="geometry"/>
          <mxStyle strokeColor="#000000" strokeWidth="2" as="style"/>
          <source cellId="12"/>
          <target cellId="3"/>
        </mxCell>
        <mxCell id="28" parent="1" edge="1">
          <mxGeometry relative="1" as="geometry"/>
          <mxStyle strokeColor="#000000" strokeWidth="2" as="style"/>
          <source cellId="13"/>
          <target cellId="14"/>
        </mxCell>
        <mxCell id="29" parent="1" edge="1">
          <mxGeometry relative="1" as="geometry"/>
          <mxStyle strokeColor="#000000" strokeWidth="2" as="style"/>
          <source cellId="14"/>
          <target cellId="15"/>
        </mxCell>
        <mxCell id="30" parent="1" edge="1">
          <mxGeometry relative="1" as="geometry"/>
          <mxStyle strokeColor="#000000" strokeWidth="2" as="style"/>
          <source cellId="15"/>
          <target cellId="16"/>
        </mxCell>
      </root>
    </mxGraphModel>
  </diagram>
</mxfile>